<mxfile host="app.diagrams.net" modified="2022-05-24T13:05:37.563Z" agent="5.0 (Windows NT 10.0; WOW64) AppleWebKit/537.36 (KHTML, like Gecko) Chrome/101.0.4951.67 Safari/537.36" etag="2l_-Bt_IgJvelGfLxkL6" version="18.0.7" type="github">
  <diagram id="Krzfnz9VawSUScPMK1at" name="Page-1">
    <mxGraphModel dx="595" dy="325" grid="0" gridSize="10" guides="1" tooltips="1" connect="1" arrows="1" fold="1" page="0" pageScale="1" pageWidth="827" pageHeight="1169" math="0" shadow="0">
      <root>
        <mxCell id="0" />
        <mxCell id="1" parent="0" />
        <mxCell id="2OgOfrEiZxHqIs05VNYj-1" value="" style="strokeWidth=1;shadow=0;dashed=0;align=center;html=1;rSize=10;fillColor=#ffffff;strokeColor=#666666;" parent="1" vertex="1">
          <mxGeometry x="30" y="90" width="250" height="30" as="geometry" />
        </mxCell>
        <mxCell id="2OgOfrEiZxHqIs05VNYj-2" value="OFF" style="strokeColor=inherit;fillColor=inherit;gradientColor=inherit;strokeWidth=1;shadow=0;dashed=0;align=center;html=1;shape=mxgraph.mockup.rrect;rSize=0;fontSize=17;fontColor=#666666;fontStyle=1;resizeHeight=1;" parent="2OgOfrEiZxHqIs05VNYj-1" vertex="1">
          <mxGeometry width="150" height="30" relative="1" as="geometry">
            <mxPoint x="100" as="offset" />
          </mxGeometry>
        </mxCell>
        <mxCell id="2OgOfrEiZxHqIs05VNYj-5" value="&lt;p&gt;COP&lt;/p&gt;" style="strokeWidth=1;shadow=0;dashed=0;align=center;html=1;rSize=10;fontSize=17;fontColor=#666666;fontStyle=1;resizeHeight=1;" parent="2OgOfrEiZxHqIs05VNYj-1" vertex="1">
          <mxGeometry width="70" height="30" relative="1" as="geometry" />
        </mxCell>
        <mxCell id="2OgOfrEiZxHqIs05VNYj-6" value="X" style="strokeColor=inherit;fillColor=inherit;gradientColor=inherit;strokeWidth=1;shadow=0;dashed=0;align=center;html=1;shape=mxgraph.mockup.rrect;rSize=0;fontSize=17;fontColor=#666666;fontStyle=1;resizeHeight=1;" parent="2OgOfrEiZxHqIs05VNYj-1" vertex="1">
          <mxGeometry width="30" height="30" relative="1" as="geometry">
            <mxPoint x="70" as="offset" />
          </mxGeometry>
        </mxCell>
        <mxCell id="2OgOfrEiZxHqIs05VNYj-7" value="" style="endArrow=classic;html=1;rounded=0;entryX=0.5;entryY=0;entryDx=0;entryDy=0;" parent="1" target="2OgOfrEiZxHqIs05VNYj-11" edge="1">
          <mxGeometry width="50" height="50" relative="1" as="geometry">
            <mxPoint x="179" y="120" as="sourcePoint" />
            <mxPoint x="179" y="210" as="targetPoint" />
          </mxGeometry>
        </mxCell>
        <mxCell id="2OgOfrEiZxHqIs05VNYj-8" value="" style="endArrow=none;html=1;rounded=0;fontFamily=Helvetica;fontSize=18;" parent="1" edge="1">
          <mxGeometry width="50" height="50" relative="1" as="geometry">
            <mxPoint x="174" y="168.5" as="sourcePoint" />
            <mxPoint x="184" y="148.5" as="targetPoint" />
          </mxGeometry>
        </mxCell>
        <mxCell id="2OgOfrEiZxHqIs05VNYj-9" value="&lt;font style=&quot;font-size: 14px;&quot;&gt;5&lt;/font&gt;" style="text;html=1;align=center;verticalAlign=middle;resizable=0;points=[];autosize=1;strokeColor=none;fillColor=none;fontSize=18;fontFamily=Helvetica;" parent="1" vertex="1">
          <mxGeometry x="160" y="135" width="20" height="30" as="geometry" />
        </mxCell>
        <mxCell id="2OgOfrEiZxHqIs05VNYj-11" value="&lt;font style=&quot;font-size: 36px;&quot; face=&quot;Verdana&quot;&gt;+&lt;/font&gt;" style="ellipse;whiteSpace=wrap;html=1;aspect=fixed;" parent="1" vertex="1">
          <mxGeometry x="165" y="200" width="30" height="30" as="geometry" />
        </mxCell>
        <mxCell id="2OgOfrEiZxHqIs05VNYj-14" value="Счётчик команд" style="rounded=0;whiteSpace=wrap;html=1;fontSize=14;" parent="1" vertex="1">
          <mxGeometry x="120" y="280" width="120" height="30" as="geometry" />
        </mxCell>
        <mxCell id="2OgOfrEiZxHqIs05VNYj-16" value="" style="edgeStyle=segmentEdgeStyle;endArrow=classic;html=1;rounded=0;fontSize=14;entryX=0;entryY=0.5;entryDx=0;entryDy=0;exitX=0;exitY=0.5;exitDx=0;exitDy=0;" parent="1" source="2OgOfrEiZxHqIs05VNYj-14" target="2OgOfrEiZxHqIs05VNYj-11" edge="1">
          <mxGeometry width="50" height="50" relative="1" as="geometry">
            <mxPoint x="89.94" y="290" as="sourcePoint" />
            <mxPoint x="139.94" y="240" as="targetPoint" />
            <Array as="points">
              <mxPoint x="120" y="290" />
              <mxPoint x="80" y="290" />
              <mxPoint x="80" y="215" />
            </Array>
          </mxGeometry>
        </mxCell>
        <mxCell id="2OgOfrEiZxHqIs05VNYj-17" value="" style="endArrow=none;html=1;rounded=0;fontFamily=Helvetica;fontSize=18;" parent="1" edge="1">
          <mxGeometry width="50" height="50" relative="1" as="geometry">
            <mxPoint x="94" y="299.5" as="sourcePoint" />
            <mxPoint x="104" y="279.5" as="targetPoint" />
          </mxGeometry>
        </mxCell>
        <mxCell id="2OgOfrEiZxHqIs05VNYj-18" value="&lt;font style=&quot;font-size: 14px;&quot;&gt;5&lt;/font&gt;" style="text;html=1;align=center;verticalAlign=middle;resizable=0;points=[];autosize=1;strokeColor=none;fillColor=none;fontSize=18;fontFamily=Helvetica;" parent="1" vertex="1">
          <mxGeometry x="81" y="259" width="20" height="30" as="geometry" />
        </mxCell>
        <mxCell id="2OgOfrEiZxHqIs05VNYj-20" value="" style="edgeStyle=elbowEdgeStyle;elbow=horizontal;endArrow=classic;html=1;rounded=0;fontSize=14;exitX=1;exitY=0.5;exitDx=0;exitDy=0;entryX=1;entryY=0.5;entryDx=0;entryDy=0;" parent="1" source="2OgOfrEiZxHqIs05VNYj-11" target="2OgOfrEiZxHqIs05VNYj-14" edge="1">
          <mxGeometry width="50" height="50" relative="1" as="geometry">
            <mxPoint x="220" y="220" as="sourcePoint" />
            <mxPoint x="320" y="240" as="targetPoint" />
            <Array as="points">
              <mxPoint x="270" y="260" />
              <mxPoint x="350" y="260" />
            </Array>
          </mxGeometry>
        </mxCell>
        <mxCell id="2OgOfrEiZxHqIs05VNYj-22" value="" style="endArrow=none;html=1;rounded=0;fontFamily=Helvetica;fontSize=18;" parent="1" edge="1">
          <mxGeometry width="50" height="50" relative="1" as="geometry">
            <mxPoint x="234" y="223.5" as="sourcePoint" />
            <mxPoint x="244" y="203.5" as="targetPoint" />
          </mxGeometry>
        </mxCell>
        <mxCell id="2OgOfrEiZxHqIs05VNYj-23" value="&lt;font style=&quot;font-size: 14px;&quot;&gt;5&lt;/font&gt;" style="text;html=1;align=center;verticalAlign=middle;resizable=0;points=[];autosize=1;strokeColor=none;fillColor=none;fontSize=18;fontFamily=Helvetica;" parent="1" vertex="1">
          <mxGeometry x="220" y="190" width="20" height="30" as="geometry" />
        </mxCell>
        <mxCell id="2OgOfrEiZxHqIs05VNYj-24" value="2" style="text;html=1;align=center;verticalAlign=middle;resizable=0;points=[];autosize=1;strokeColor=none;fillColor=none;fontSize=14;" parent="1" vertex="1">
          <mxGeometry x="50" y="70" width="20" height="20" as="geometry" />
        </mxCell>
        <mxCell id="2OgOfrEiZxHqIs05VNYj-25" value="5" style="text;html=1;align=center;verticalAlign=middle;resizable=0;points=[];autosize=1;strokeColor=none;fillColor=none;fontSize=14;" parent="1" vertex="1">
          <mxGeometry x="200" y="70" width="20" height="20" as="geometry" />
        </mxCell>
        <mxCell id="2OgOfrEiZxHqIs05VNYj-26" value="1" style="text;html=1;align=center;verticalAlign=middle;resizable=0;points=[];autosize=1;strokeColor=none;fillColor=none;fontSize=14;" parent="1" vertex="1">
          <mxGeometry x="106" y="70" width="20" height="20" as="geometry" />
        </mxCell>
      </root>
    </mxGraphModel>
  </diagram>
</mxfile>
